<svg width="299px" height="282px" viewBox="0 0 299 282" version="1.1" xmlns="http://www.w3.org/2000/svg" xmlns:xlink="http://www.w3.org/1999/xlink">
    <g id="Page-1" stroke="none" stroke-width="1" fill="none" fill-rule="evenodd">
        <g id="Desktop-HD" transform="translate(-495.000000, -231.000000)" fill="#0091FF">
            <g id="Group" transform="translate(495.714303, 230.998393)">
                <path d="M239.31562,0.936700343 L240.345659,1.10707578 L198.575327,95.7286981 C184.619761,127.342004 151.408189,145.81754 117.260772,141.095951 L116.225734,140.945762 L158.079084,45.3731311 C171.917496,13.7729505 205.32946,-4.44692211 239.31562,0.936700343 L239.31562,0.936700343 Z" id="Rectangle"></path>
                <path d="M288.388333,280.379608 L287.86469,281.272818 L210.923892,210.282301 C185.730568,187.037323 179.702809,149.631472 196.199894,119.685177 L196.706704,118.780019 L274.516235,190.186626 C299.724464,213.320477 305.438496,250.822666 288.388333,280.379608 L288.388333,280.379608 Z" id="Rectangle-Copy"></path>
                <path d="M0.263631624,153.281878 L0,152.27022 L115.768887,152.592416 C150.36901,152.688711 180.701416,175.615758 190.28728,208.774683 L190.571394,209.782618 L73.9009933,209.782618 C39.3574831,209.782618 9.17883226,186.565342 0.263631624,153.281878 L0.263631624,153.281878 Z" id="Rectangle-Copy"></path>
            </g>
        </g>
    </g>
</svg>